<svg xmlns="http://www.w3.org/2000/svg" xmlns:xlink="http://www.w3.org/1999/xlink" viewBox="0 0 66 56" fill="#fff" fill-rule="evenodd" stroke="#000" stroke-linecap="round" stroke-linejoin="round"><style><![CDATA[.B{stroke:none}.C{fill-rule:nonzero}.D{fill:none}.E{stroke-width:.466}.F{stroke-width:.279}.G{fill:#543e3c}.H{fill:#9ddff9}.I{fill:#76747a}.J{fill:#f26d7d}.K{fill:#c25e69}.L{fill:#000}.M{fill:#c6996d}.N{fill:#8f6c5e}.O{fill:#fdf155}.P{stroke:#f90}.Q{fill:#ffd064}.R{fill:#6f4d4a}.S{stroke-width:.005}]]></style><use xlink:href="#A" x=".5" y=".5"/><symbol id="A" overflow="visible"><g class="B C"><path d="M57.769 5.463h.005c-.573-.33-1.212-.43-1.915-.303h-.005c-.704.126-1.267.447-1.687.955h-.005v.005c-.35.424-.527.87-.527 1.35-1.479.192-2.922.593-4.287 1.193-.32-1.347-1.053-2.335-2.186-2.955l-.093-.05 1.56-1.267c.33.233.722.36 1.174.377.373.014.685-.028.937-.126a2.77 2.77 0 0 0 .792-.447c.53-.433.834-.965.913-1.598a2.14 2.14 0 0 0-.508-1.72 2.26 2.26 0 0 0-1.636-.792h-.01a2.49 2.49 0 0 0-1.757.587l-.005.005a2.38 2.38 0 0 0-.91 1.59v.005c-.07.55.042 1.04.326 1.473l-1.85 1.5c-.788-.26-1.66-.382-2.624-.36-1.37.023-2.833.335-4.394.932l-1.454.615c-.177-.685-.424-1.212-.74-1.57-.5-.583-1.034-.732-1.603-.447-.494.196-.895.722-1.202 1.575v.005c-.275.764-.43 1.724-.457 2.885-1.3.98-2.55 2.125-3.775 3.44-2.582.084-5.005.545-7.274 1.4h34.667l-.354-.22c-.77-.438-1.785-.75-3.048-.94-1.342-.205-2.833-.26-4.47-.172a12.91 12.91 0 0 0 .158-1.44c.023-.47.02-.9-.02-1.32 1.323-.6 2.75-1.016 4.273-1.22.14.284.396.56.774.834l.093.06.107.06c.57.33 1.207.43 1.915.303s1.267-.447 1.692-.955c.452-.545.615-1.132.5-1.766s-.475-1.123-1.1-1.468zm-9.134-1.617l-.033-.037.033.033v.005"/><path d="M62.421 14.602c-.5-.08-.927-.005-1.314.224l-.01.01c-.228.135-.405.303-.53.494-.713-.098-1.426-.145-2.14-.14-.172-.568-.568-1.062-1.188-1.482H22.577a21.45 21.45 0 0 0-4.06 2.01c-.028-.564.05-1.105.233-1.626.266-.01.527-.084.788-.228l.033-.02.047-.028.158-.107h-3.374a5.18 5.18 0 0 1-.527.396c-.01.005-.02.014-.023.02-.67.42-1.43.648-2.284.68.275-.34.527-.708.764-1.095H.152a4.02 4.02 0 0 0 .452 1.1c.377.657 1.095 1.207 2.153 1.654.9.382 1.94.648 3.136.802l.904.093c-.76.433-1.42.927-1.98 1.482-.853.843-1.263 1.654-1.23 2.433l-.284.13-.937.452.97.396a6.78 6.78 0 0 1 1.883 1.109 1.12 1.12 0 0 0 .098.443v-.01c.117.294.322.522.624.68h.005a1.27 1.27 0 0 0 .918.112h.005c.233-.06.42-.168.564-.33.224-.247.312-.555.266-.923l-.014-.065-.06-.182c-.01-.014-.01-.023-.014-.028-.093-.2-.228-.382-.405-.517l.005.005c-.07-.056-.14-.102-.214-.14a1.33 1.33 0 0 0-.57-.15c-.08-.144-.14-.28-.172-.405-.033-.144-.037-.275-.005-.4.2-.62 1.146-1.137 2.8-1.543.004.013.011.026.019.037l.48 1.1.923 1.734-1.296.806c-.01.005-.02.014-.028.02-1.766 1.137-3.5 2.405-5.23 3.803h55.91l-.005-.116-.005-.168-.116-.126c-2.065-2.274-4.255-4.18-6.56-5.718l-.587-.396-.154.82-3.337-1.44c2.297-.5 4.2-1.016 5.704-1.575 2.2-.825 3.43-1.678 3.695-2.563.626-.005 1.252.033 1.873.112.023.312.158.6.4.87l.005.005c.294.34.685.545 1.18.625s.927 0 1.32-.228h-.005c.438-.256.7-.606.75-1.053v.005c.08-.443-.05-.853-.387-1.23-.294-.34-.7-.545-1.18-.624zm-45.194 1.883l.074.05-1.267.988.075.098-.075-.098-.093-.12.354-.205c.332-.208.645-.447.932-.713"/><path d="M26.636 4.433c0-.377-.135-.7-.4-.965s-.587-.4-.965-.4a1.31 1.31 0 0 0-.965.396v.005h-.005a1.31 1.31 0 0 0-.396.965l.005.098-.354.242c-.219-.193-.466-.353-.732-.475-.176-.078-.358-.14-.545-.186-.676-.163-1.277-.06-1.803.312h.005c-.545.363-.862.9-.95 1.608l-.186.065-.14.056c-.06.023-.14.06-.242.12l-.01.005c-.573.303-1.072.63-1.505.98l-.05.042a5.9 5.9 0 0 0-1.254 1.389c-.172.27-.308.53-.4.783a6.19 6.19 0 0 0-.154-1.668c-.266-1.18-.974-2.102-2.12-2.768-.76-.452-1.953-.87-3.57-1.258h-.005l-2-.466-1.985-.55C4.477 2.3 3.329 1.68 2.482.934L1.397 0l.312 1.4c.252 1.067.266 2.25.042 3.56v.005c-.13.76-.433 1.925-.913 3.486-.452 1.482-.718 2.582-.797 3.3v.005c-.08.722-.042 1.375.103 1.962h14.18l.53-.993c.336-.713.578-1.403.722-2.074a1.71 1.71 0 0 0 .27.69l.02.037.028.033c.33.396.774.615 1.337.657-.084.27-.103.53-.05.788-.247.326-.508.615-.788.862h3.374a1.87 1.87 0 0 0 .587-.764v-.005l.005-.014.028-.074c.168-.452.154-.88-.037-1.286-.023-.065-.08-.154-.16-.27l-.028-.033-.05-.056c.55-.364 1.06-.785 1.524-1.254h.005a4.24 4.24 0 0 0 .39-.447c.625.12 1.184.01 1.682-.33.573-.387.9-.965.95-1.724.013-.161.015-.323.005-.485-.015-.2-.051-.399-.107-.592v-.005c-.033-.121-.075-.239-.126-.354l.368-.3a1.34 1.34 0 0 0 .457.075 1.3 1.3 0 0 0 .96-.396 1.31 1.31 0 0 0 .406-.969zm-5.415 1.384a.62.62 0 0 1 .158-.154.8.8 0 0 1 .694-.08c-.312.12-.596.2-.853.233zm1.63 2l-.05.028.126-.214.005-.014.01-.014.028-.047.186-.242c-.042.214-.14.382-.303.503zm-.047-.07l.005-.02c-.005.01-.005.02-.005.023M2.139 28.913l-.144.126-.01.2c-.266 3.747.256 7.493 1.566 11.236.028.08.075.15.135.2a.49.49 0 0 0 .168.093l.023.005 1.314.33h43.6c.284-.46.545-.932.788-1.412.279-.523.52-1.065.722-1.622l.862.145.5-.592.336 3.48h1.212l1.645-.12h.037l.023-.005.065-.014 3.705-1.1-.95-6.012 1.417-1.132c.084-.07.135-.15.158-.247a17.38 17.38 0 0 0 .53-5.052H3.927c-.607.49-1.204.994-1.789 1.51"/><path d="M12.222 43.22l-.014.01c-.326.182-.522.475-.592.872v-.005a1.43 1.43 0 0 0 .186 1.034v.005a1.33 1.33 0 0 0 .205.275l-.33.904c-.438-.238-.876-.443-1.314-.62h.005l-.466-.182-.56-.205-.326 3.206c-.755.9-1.165 1.776-1.23 2.6v.005c-.098 1 .294 1.906 1.184 2.7.923.816 1.93 1.123 3.02.923 1.02-.177 1.883-.77 2.586-1.78l3.323-.937-.42-.545-.9-1.086 1.24-.597c.07.042.15.084.233.117a1.4 1.4 0 0 0 .955.037h-.005c.322-.098.555-.275.7-.527 2.908 1.417 6.16 2.125 9.758 2.13 3.654 0 7-.732 10.038-2.2l.76-.382c1.58-.843 3.076-1.892 4.488-3.146 1.64-1.46 2.982-3.03 4.026-4.72H5.189l4.688 1.184 1.007-1.114c.399.714.846 1.401 1.337 2.055zm1.84 2.116a22.68 22.68 0 0 0 .485.471 9.78 9.78 0 0 0 .638.582l-1.16 1.5-.005-.005c-.005-.005-.014-.01-.02-.014-.023-.02-.042-.033-.056-.047h-.005c-.34-.275-.825-.62-1.45-1.04l.34-.932c.294.05.568.005.825-.15h-.005c.172-.098.308-.224.4-.377zm1.836 1.65c.509.405 1.034.788 1.575 1.15a1.03 1.03 0 0 0-.107.168v.005c-.12.233-.154.47-.093.708l-1.337.648-.028-.028c-.375-.393-.765-.77-1.17-1.132l1.16-1.52m36.09-5.89l.01.088 1.202-.088h-1.212"/></g><g class="D"><path d="M15.941 17.402l-.065-.084m.233.302l-.075-.098" stroke="#fff" class="S"/><path d="M61.386 15.934a14.76 14.76 0 0 0-3.984-.238" class="E"/></g><g class="B C"><path d="M54.606 18.246c2.52-.94 3.658-1.883 3.402-2.83-.163-.6-.6-1.1-1.35-1.524-.727-.4-1.692-.704-2.9-.885-2.55-.387-5.64-.238-9.274.452l-.98 7.316c4.842-.74 8.542-1.585 11.1-2.53" fill="#00746b"/><path d="M57.705 15.538c-.154-.5-.587-.9-1.3-1.212-.7-.303-1.626-.5-2.782-.578-2.456-.182-5.43.13-8.93.927l-.94 6.263c4.665-.913 8.22-1.845 10.676-2.8 2.428-.946 3.523-1.813 3.276-2.6" fill="#2a5953"/></g><path d="M43.515 20.776c4.842-.74 8.542-1.585 11.1-2.53 2.52-.94 3.658-1.883 3.402-2.83-.163-.6-.6-1.1-1.35-1.524-.727-.4-1.692-.704-2.9-.885-2.55-.387-5.64-.238-9.274.452" class="D E"/><g class="B C"><path d="M63.25 15.534c-.228-.256-.527-.4-.904-.47s-.713-.005-1.01.168-.47.42-.522.722.047.587.275.844a1.47 1.47 0 0 0 .904.475c.377.06.713 0 1.01-.172s.475-.415.522-.718-.042-.587-.275-.848" class="J"/><path d="M63.185 15.995c-.15-.168-.35-.27-.597-.312a1.01 1.01 0 0 0-.666.112c-.196.116-.312.275-.345.475s.028.387.182.56a.98.98 0 0 0 .596.312 1 1 0 0 0 .671-.116.63.63 0 0 0 .34-.47.67.67 0 0 0-.182-.56" fill="#b25963"/></g><path d="M62.347 15.063c-.377-.06-.713-.005-1.01.168s-.47.42-.522.722.047.587.275.844a1.47 1.47 0 0 0 .904.475c.377.06.713 0 1.01-.172s.475-.415.522-.718-.042-.587-.275-.848-.527-.4-.904-.47z" class="D E"/><path d="M55.277 15.23c0-.387-.186-.713-.555-.988s-.8-.4-1.333-.4-.97.135-1.337.4-.55.6-.55.988.182.713.55.988.815.4 1.337.4.965-.135 1.333-.4.555-.6.555-.988" class="B C Q"/><path d="M54.722 14.243c-.368-.275-.8-.4-1.333-.4s-.97.135-1.337.4-.55.6-.55.988.182.713.55.988.815.4 1.337.4.965-.135 1.333-.4.555-.6.555-.988-.186-.713-.555-.988z" class="D F"/><path d="M53.739 15.128c0-.135-.07-.247-.205-.345s-.303-.144-.494-.144a.83.83 0 0 0-.499.144c-.135.098-.2.2-.2.345s.065.247.2.345a.83.83 0 0 0 .499.145c.2 0 .36-.047.494-.145s.205-.2.205-.345" fill="#2f211e" class="B C"/><g class="D"><path d="M53.534 14.783c-.135-.098-.303-.144-.494-.144a.83.83 0 0 0-.499.144c-.135.098-.2.2-.2.345s.065.247.2.345a.83.83 0 0 0 .499.145c.2 0 .36-.047.494-.145s.205-.2.205-.345-.07-.247-.205-.345z" class="F"/><path d="M54.745 7.82c-2.083.163-3.998.666-5.74 1.515m-.178-5.708L45.905 6" class="E"/></g><g class="B C"><path d="M43.487 5.351c-1.32.023-2.735.326-4.24.9-.666.25-1.316.54-1.948.867-.154-.9-.4-1.538-.764-1.953-.33-.387-.685-.5-1.058-.326-.387.172-.704.6-.955 1.3-.275.778-.42 1.766-.433 2.97-1.38 1.025-2.722 2.246-4.026 3.658 3.425 4.026 8.84 6.468 16.25 7.33.396-.9.778-1.808 1.142-2.763.974.075 1.8-.01 2.447-.247.592-.214.946-.508 1.062-.88s-.037-.708-.46-1c-.466-.34-1.17-.554-2.1-.648.392-1.384.615-2.596.67-3.644.126-2.34-.583-3.938-2.125-4.795-.965-.536-2.116-.792-3.448-.764" fill="#7cc576"/><path d="M46.031 6.978c-1.766-.63-3.798-.4-6.086.685-2.284 1.076-4.18 2.796-5.695 5.15 3.253 1.333 7.274 3.537 12.06 6.613a16.85 16.85 0 0 0 .634-1.114c.189-.364.352-.741.489-1.128.74.05 1.398-.028 1.97-.247.6-.233.885-.545.82-.932-.08-.47-.88-.722-2.4-.755a21.73 21.73 0 0 0 .35-2.395c.09-1.063.07-2-.05-2.778-.107-.666-.28-1.207-.517-1.622a4.17 4.17 0 0 0-.75-.946c-.28-.256-.555-.433-.825-.53" fill="#6f9b64"/></g><g class="D"><path d="M46.311 20.106l1.142-2.763c.974.075 1.8-.01 2.447-.247.592-.214.946-.508 1.062-.88s-.037-.708-.46-1c-.466-.34-1.17-.554-2.1-.648.392-1.384.615-2.596.67-3.644.126-2.34-.583-3.938-2.125-4.795-.965-.536-2.116-.792-3.448-.764-1.32.023-2.735.326-4.24.9a18.02 18.02 0 0 0-1.948.867c-.154-.9-.4-1.538-.764-1.953-.33-.387-.685-.5-1.058-.326-.387.172-.704.6-.955 1.3-.275.778-.42 1.766-.433 2.968-1.38 1.025-2.722 2.246-4.026 3.658" class="E"/><path d="M42.867 7.1a3.92 3.92 0 0 0-2.535.713c-.77.54-1.24 1.22-1.407 2.037a2.39 2.39 0 0 0 .555 2.153c.53.624 1.258.965 2.18 1.02a3.9 3.9 0 0 0 2.54-.722c.77-.54 1.235-1.212 1.398-2.032a2.42 2.42 0 0 0-.545-2.158c-.531-.62-1.263-.95-2.186-1.01z" stroke="#7cc576" stroke-width=".746"/></g><g class="B C"><path d="M45.621 10.22a2.41 2.41 0 0 0-.545-2.158c-.531-.62-1.263-.95-2.186-1.01a3.92 3.92 0 0 0-2.535.713c-.77.54-1.24 1.22-1.407 2.037a2.39 2.39 0 0 0 .555 2.153c.53.624 1.258.965 2.18 1.02a3.86 3.86 0 0 0 2.54-.722c.77-.536 1.235-1.212 1.398-2.032" fill="#fff356"/><path d="M40.929 8.613c-.657.452-1.058 1.02-1.212 1.706s-.01 1.286.424 1.803 1.044.806 1.813.853a3.28 3.28 0 0 0 2.139-.606c.652-.447 1.053-1.016 1.202-1.7s.014-1.286-.42-1.808c-.438-.513-1.044-.792-1.817-.844a3.29 3.29 0 0 0-2.13.597" fill="#cbbb4e"/></g><path d="M42.889 7.052a3.92 3.92 0 0 0-2.535.713c-.77.54-1.24 1.22-1.407 2.037a2.39 2.39 0 0 0 .555 2.153c.53.624 1.258.965 2.18 1.02a3.86 3.86 0 0 0 2.54-.722c.77-.536 1.235-1.212 1.398-2.032a2.42 2.42 0 0 0-.545-2.158c-.531-.62-1.263-.95-2.186-1.01z" class="D F"/><g class="B C"><path d="M41.039 7.803c-.205.145-.33.322-.378.53a.63.63 0 0 0 .13.564c.135.164.326.247.564.26s.46-.047.666-.186.326-.317.373-.53a.62.62 0 0 0-.131-.559c-.135-.163-.326-.252-.564-.266a1.05 1.05 0 0 0-.662.186" fill="#fff356"/><path d="M41.54 9.173a2.07 2.07 0 0 0-1.128.261c-.34.2-.55.447-.625.75s.01.564.247.788.56.354.97.377a2.05 2.05 0 0 0 1.128-.266c.34-.196.545-.443.62-.746s-.005-.564-.242-.792-.564-.35-.97-.373" class="R"/></g><path d="M40.412 9.434c-.34.2-.55.447-.625.75s.01.564.247.788.56.354.97.377a2.05 2.05 0 0 0 1.128-.266c.34-.196.545-.443.62-.746s-.005-.564-.242-.792-.564-.35-.97-.373a2.07 2.07 0 0 0-1.128.261z" class="D F"/><g class="B C"><path d="M50.272.55a2.07 2.07 0 0 0-1.445.485 1.94 1.94 0 0 0-.741 1.291 1.68 1.68 0 0 0 .4 1.356c.33.386.774.6 1.314.624a2.04 2.04 0 0 0 1.44-.475c.433-.35.68-.778.746-1.295s-.07-.97-.4-1.356-.774-.597-1.314-.63" class="J"/><path d="M51.451 1.898a1.32 1.32 0 0 0-.946-.452 1.47 1.47 0 0 0-1.04.35c-.308.252-.485.555-.536.927s.05.7.29.98a1.28 1.28 0 0 0 .946.447 1.47 1.47 0 0 0 1.04-.34c.308-.247.49-.564.536-.932a1.22 1.22 0 0 0-.29-.98" class="K"/></g><path d="M48.827 1.036a1.94 1.94 0 0 0-.741 1.291 1.68 1.68 0 0 0 .4 1.356c.33.386.774.6 1.314.624a2.04 2.04 0 0 0 1.44-.475c.433-.35.68-.778.746-1.295s-.07-.97-.4-1.356-.774-.597-1.314-.63a2.07 2.07 0 0 0-1.445.485z" class="D E"/><g class="B C"><path d="M55.939 5.617c-.592.107-1.062.373-1.417.797s-.48.885-.4 1.38.373.88.853 1.15 1 .354 1.603.247 1.062-.368 1.417-.792.485-.885.396-1.384-.377-.876-.857-1.146-1-.36-1.603-.252" class="J"/><path d="M56.507 6.586a1.81 1.81 0 0 0-1.118.321c-.33.228-.522.513-.573.857a1 1 0 0 0 .308.9c.258.257.6.396 1.02.415a1.76 1.76 0 0 0 1.114-.312c.336-.233.527-.522.578-.862s-.056-.643-.312-.9-.596-.396-1.016-.42" class="K"/></g><path d="M54.522 6.414c-.35.424-.48.885-.4 1.38s.373.88.853 1.15 1 .354 1.603.247 1.062-.368 1.417-.792.485-.885.396-1.384-.377-.876-.857-1.146-1-.36-1.603-.252-1.062.373-1.417.797z" class="D E"/><g class="B C"><path d="M36.249 6.47c-.168-.2-.35-.238-.54-.112-.424.284-.713 1.105-.867 2.465l1.84-1.24c-.107-.53-.252-.904-.433-1.114" fill="#6f9b64"/><path d="M45.337 18.372c-3.957-3.737-8.826-5.606-14.6-5.606s-10.77 1.87-14.978 5.606S9.365 26.63 9.193 31.92s1.715 9.805 5.67 13.547 8.83 5.6 14.605 5.6 10.765-1.87 14.973-5.6 6.403-8.258 6.575-13.547-1.72-9.805-5.68-13.547" class="M"/><path d="M34.236 12.854c1.626.806 3.02 1.612 4.18 2.423a19.97 19.97 0 0 1 2.838 2.395c-3.737-1.873-7.475-2.67-11.208-2.4-3.35.252-6.45 1.338-9.297 3.253-2.647 1.78-4.74 4.036-6.277 6.766-1.53 2.712-2.246 5.43-2.158 8.155.005.135 0 .312-.01.54-.014.256-.02.438-.02.54l-1.915.643-.746 2.656 2.33 4.194 1.417-1.542c.437.875.947 1.712 1.524 2.502.55.746 1.23 1.533 2.036 2.367 3.35 3.44 7.526 5.16 12.526 5.16s9.367-1.72 13.1-5.16c1.114-1.03 2.055-2.05 2.82-3.07.76-1.002 1.43-2.12 2.023-3.346l1.9.573 1.072-2.982-2.134-.536a19.01 19.01 0 0 0 .308-2.54c.145-2.698-.02-4.982-.5-6.85-.438-1.73-1.17-3.27-2.2-4.618l.634-2.517c-3.35-3.68-7.433-5.886-12.256-6.617" class="N"/></g><path d="M30.737 12.766c-5.774 0-10.77 1.87-14.978 5.606S9.365 26.63 9.193 31.92s1.715 9.805 5.67 13.547 8.83 5.6 14.605 5.6 10.765-1.87 14.973-5.6 6.403-8.258 6.575-13.547-1.72-9.805-5.68-13.547-8.826-5.606-14.6-5.606z" class="D E"/><g class="B C"><path d="M23.729 5.677c-.377-.554-.857-.913-1.44-1.08s-1.095-.102-1.547.2-.704.764-.76 1.365.107 1.184.485 1.738.853.9 1.435 1.076 1.104.107 1.556-.2.7-.77.75-1.375-.102-1.184-.48-1.734zm-3.14.583c.033-.438.2-.764.53-.983s.7-.26 1.104-.135c.424.13.774.396 1.05.8s.396.825.363 1.268-.2.77-.522.988-.7.26-1.114.13-.77-.396-1.044-.802-.4-.825-.368-1.267" class="H"/><path d="M24.169 6.45l-.3-.606-.433.4.13.732.592-.536" fill="#86adc0"/></g><g class="D F"><path d="M22.289 4.596c-.582-.172-1.095-.102-1.547.2s-.704.764-.76 1.365.107 1.184.485 1.738.853.9 1.435 1.076 1.104.107 1.556-.2.7-.77.75-1.375-.102-1.184-.48-1.734-.857-.913-1.44-1.08z"/><path d="M20.587 6.26c-.033.443.093.862.368 1.267s.62.67 1.044.802.792.1 1.114-.13.494-.545.522-.988-.088-.862-.363-1.268-.624-.67-1.05-.8c-.415-.126-.783-.084-1.104.135s-.5.545-.53.983z"/></g><g class="B C"><path d="M19.269 11.204c-.312-.08-.615-.028-.918.144s-.517.424-.634.75c-.107.294-.117.568-.02.834-.457.657-.98 1.18-1.57 1.56.32.545.676 1.002 1.058 1.365.303.284.62.513.96.685-.2-1.044-.103-2.027.298-2.955.298.07.592.02.885-.15a1.36 1.36 0 0 0 .629-.755c.12-.326.112-.634-.023-.923s-.36-.48-.666-.56" class="G"/><path d="M8.666 16.978c-1.445.573-2.62 1.3-3.523 2.2-.857.844-1.207 1.65-1.044 2.4.545-.182 1.1-.247 1.687-.2.2-.857 1.375-1.528 3.55-2 .755 1.915 1.724 3.672 2.913 5.266l7-2.9c-1.6-1.43-2.922-2.94-4.008-4.525.792-.34 1.445-.797 1.953-1.36-.382-.364-.736-.82-1.058-1.365-.834.536-1.8.792-2.894.774-.047 2.353.48 4.95 1.58 7.782-1.412-.946-2.605-1.906-3.58-2.875s-1.832-2.04-2.568-3.197" class="Q"/><path d="M5.716 23.172a.61.61 0 0 0 .028.443.86.86 0 0 0 .41.443c.196.098.396.126.596.075s.34-.158.424-.33a.61.61 0 0 0 .014-.541c-.08-.196-.22-.345-.4-.443s-.4-.126-.587-.075c-.363-.5-.5-.955-.405-1.365a4.24 4.24 0 0 0-1.687.2 3.7 3.7 0 0 0-.592.238 7.32 7.32 0 0 1 2.21 1.356m5.707-8.166l-2.375 1.067a6.55 6.55 0 0 1-.391.904c.736 1.157 1.597 2.229 2.568 3.197s2.167 1.93 3.58 2.875c-1.1-2.833-1.626-5.43-1.58-7.782-.608-.019-1.212-.106-1.8-.26" class="G"/><path d="M5.939 23.172c-.163.322-.107.573.177.764s.624.186 1-.02c.256-.755-.042-1.142-.885-1.165-.382-.503-.555-.96-.513-1.37h-.825c.065.6.4 1.198 1.035 1.8m13.796-11.766l-.42-.303-1.35.583.536.233c-.298.26-.415.643-.35 1.142-.229.405-.488.793-.774 1.16-.3.36-.592.638-.9.84l.755.927c.172-.056.275-.05.298.01a5.71 5.71 0 0 1 .77-2.586c1.505.298 2-.368 1.445-2.004" fill="#3a2b29"/><path d="M4.906 21.382h.825c.1-.932 1.272-1.626 3.542-2.078l1.83 3.635.583-.34 4.534-2.372c-.76-1.258-1.212-2.288-1.356-3.1 1.417-.326 2.204-.708 2.358-1.15l-.755-.927c-.592.438-1.22.7-1.892.755-.657.06-1.32-.056-1.994-.354l-3.75 1.7c-1.216.676-2.2 1.393-2.913 2.162-.74.787-1.077 1.473-1 2.06" fill="#cba357"/><path d="M19.329 10.98h-.005c-.368-.098-.732-.042-1.1.168-.354.2-.6.494-.736.87a1.36 1.36 0 0 0-.056.876c-.424.587-.904 1.053-1.44 1.403-.797.508-1.715.755-2.763.736-.55-.014-1.132-.098-1.743-.252l-.08-.02-2.544 1.142-.033.098a5.87 5.87 0 0 1-.34.792c-1.44.578-2.6 1.314-3.518 2.2-.853.84-1.235 1.645-1.142 2.42a4.3 4.3 0 0 0-.433.182l-.466.228.485.2c.76.298 1.44.704 2.036 1.22a.84.84 0 0 0 .07.447 1.07 1.07 0 0 0 .517.564h.005a1.07 1.07 0 0 0 .755.093c.27-.07.46-.22.578-.457v.005a.86.86 0 0 0 .023-.736h-.005a1.08 1.08 0 0 0-.517-.559 1.07 1.07 0 0 0-.587-.121c-.256-.387-.35-.74-.284-1.062.2-.74 1.254-1.338 3.183-1.785a22.92 22.92 0 0 0 2.866 5.13l.107.145 7.498-3.1-.27-.247c-1.496-1.35-2.768-2.768-3.812-4.255.63-.303 1.17-.68 1.612-1.132.266.228.55.42.843.57l.415.214-.084-.466a4.68 4.68 0 0 1 .219-2.652c.284.023.57-.042.853-.205.35-.205.597-.5.732-.88v.005c.145-.4.13-.76-.033-1.104h.005c-.172-.36-.443-.587-.82-.685zM5.306 19.336c.885-.872 2.036-1.584 3.448-2.14l.042-.02.037-.014.042-.08a6.89 6.89 0 0 0 .373-.84l2.2-.993c.579.147 1.173.229 1.77.247h.005c1.1.02 2.055-.224 2.9-.732.247.392.513.736.797 1.03-.48.5-1.076.9-1.8 1.207l-.256.116.158.228c1.03 1.5 2.288 2.95 3.775 4.32l-6.487 2.68a22.46 22.46 0 0 1-2.773-5.066l-.075-.186-.196.042c-2.223.5-3.458 1.188-3.705 2.088-.433-.014-.862.033-1.277.144-.056-.643.28-1.323 1.002-2.036zm.7 3.546l.084.12.163-.033c.14-.037.28-.02.424.056h-.005a.6.6 0 0 1 .303.322.42.42 0 0 1-.005.35h-.005c-.05.107-.144.177-.27.2a.64.64 0 0 1-.433-.056.6.6 0 0 1-.298-.32v-.005h-.005a.39.39 0 0 1-.019-.28l.042-.154-.107-.093a7.82 7.82 0 0 0-1.845-1.212l.317-.135a4.1 4.1 0 0 1 1.184-.15c-.047.424.112.88.475 1.38zm12.46-11.33a.97.97 0 0 1 .746-.12.75.75 0 0 1 .513.429v.005c.107.228.112.475.014.74a1.16 1.16 0 0 1-.527.634c-.238.135-.475.177-.718.126l-.2-.042-.074.172c-.36.82-.485 1.687-.387 2.6-.205-.107-.447-.275-.727-.503-.281-.302-.533-.63-.75-.98.568-.387 1.076-.904 1.524-1.547l.07-.093-.042-.12a.94.94 0 0 1 .02-.67v-.005a1.13 1.13 0 0 1 .531-.624" class="L"/><path d="M13.233 15.5h-.005a8.2 8.2 0 0 1-1.771-.247l-2.2.993a6.8 6.8 0 0 1-.373.839l-.042.08-.037.014a18.64 18.64 0 0 0 2.437 2.996c.974.97 2.167 1.93 3.58 2.875-1.062-2.74-1.6-5.257-1.58-7.55" class="G"/></g><path d="M13.233 15.5c-.01 2.293.517 4.8 1.58 7.55-1.412-.946-2.605-1.906-3.58-2.875a18.49 18.49 0 0 1-2.437-2.996" stroke-width=".093" class="D"/><g class="B C"><path d="M24.939 4.736l-.247-.2c-1.4 1.067-2.535 1.65-3.434 1.757.005.722.363 1.207 1.076 1.46.368-.825 1.263-1.747 2.694-2.76l-.1-.247" fill="#94625e"/><path d="M21.259 6.283l-.98.056c-.377.042-.746.16-1.114.35-1.198.634-2.078 1.384-2.633 2.25-.54.844-.634 1.56-.28 2.148.452.513 1.165.638 2.134.373.997-.27 1.976-.885 2.93-1.84.294-.294.517-.6.67-.955l.345-.923c-.713-.252-1.072-.736-1.076-1.46" class="J"/><path d="M24.436 5.235V4.9c-1.277 1.16-2.26 1.887-2.954 2.18l.764.718c.396-.676 1.123-1.528 2.2-2.563" fill="#74504d"/><path d="M17.209 10.855c.34.387.88.485 1.617.284.755-.205 1.38-.53 1.87-.98s.783-.77.885-.96l.364-.7c.05-.2.158-.443.312-.704l-.764-.718c-.186.08-.35.126-.494.14-.336.014-.606.06-.806.144s-.578.336-1.132.755c-.548.409-1.063.859-1.542 1.347-.47.48-.573.946-.308 1.4" fill="#a3555c"/></g><g class="D"><path d="M22.334 7.742c-.713-.252-1.072-.736-1.076-1.46" class="F"/><g class="E"><path d="M24.939 4.736l.1.247c-1.43 1-2.325 1.934-2.694 2.76L22 8.666a3.2 3.2 0 0 1-.67.955c-.955.955-1.934 1.57-2.93 1.84-.97.266-1.682.14-2.134-.373-.354-.587-.26-1.305.28-2.148.555-.867 1.435-1.617 2.633-2.25.368-.2.736-.308 1.114-.35l.979-.056c.9-.107 2.046-.7 3.434-1.757z"/><path d="M17.795 9l-.56.513.606.256.35.75.466-.844 1.165-.07-.56-.63V8.09l-.77.35" stroke="#f26d7d"/></g></g><path d="M26.169 4.433c0-.247-.1-.46-.266-.64a.87.87 0 0 0-.634-.261.94.94 0 0 0-.638.26.84.84 0 0 0-.26.64.87.87 0 0 0 .261.634c.177.177.392.266.638.266s.46-.1.634-.266.266-.387.266-.634" class="B C J"/><path d="M25.904 3.795a.87.87 0 0 0-.634-.261.94.94 0 0 0-.638.26.84.84 0 0 0-.26.64.87.87 0 0 0 .261.634c.177.177.392.266.638.266s.46-.1.634-.266.266-.387.266-.634-.1-.46-.266-.64z" class="D E"/><g class="B C"><path d="M19.245 8.036l-.4.182-1.45 1.32.42.177.35.75.466-.844 1.165-.07-.56-.63v-.885" class="Q"/><path d="M18.853 8.217l-.377.168-.652-.373-.047.932-.56.513.186.08 1.45-1.32"/></g><path d="M18.853 8.217l-.377.168-.652-.373-.047.932-.56.513.186.08.42.177.35.75.466-.844 1.165-.07-.56-.63v-.885z" stroke-width=".186" class="D"/><path d="M24.209 7.4c.014-.14.014-.28.005-.415h-.573c.003.071.002.143-.005.214-.028.443-.2.77-.522.988s-.7.26-1.114.13-.77-.396-1.044-.802-.4-.825-.368-1.267.2-.764.53-.983.7-.26 1.104-.135c.023.005.042.014.065.023v-.568c-.582-.172-1.095-.102-1.547.2s-.704.764-.76 1.365.107 1.184.485 1.738.853.9 1.435 1.076 1.104.107 1.556-.2.7-.77.75-1.375" class="B C H"/><g class="D F"><path d="M23.639 6.996a1.53 1.53 0 0 1-.005.214c-.028.443-.2.77-.522.988s-.7.26-1.114.13-.77-.396-1.044-.802-.4-.825-.368-1.267.2-.764.53-.983.7-.26 1.104-.135c.023.005.042.014.065.023"/><path d="M22.289 4.596c-.582-.172-1.095-.102-1.547.2s-.704.764-.76 1.365.107 1.184.485 1.738.853.9 1.435 1.076 1.104.107 1.556-.2.7-.77.75-1.375a2.52 2.52 0 0 0 .005-.415"/></g><path d="M15.13 7.905c-.242-1.05-.876-1.87-1.9-2.47-.732-.43-1.883-.83-3.444-1.207l-1.996-.466-2.018-.56C4.26 2.7 3.06 2.07 2.169 1.283c.266 1.123.284 2.372.047 3.747-.13.778-.438 1.957-.927 3.546-.443 1.445-.7 2.516-.778 3.215-.117 1.1.047 2.027.494 2.777.34.573.988 1.063 1.934 1.463.857.368 1.86.624 3 .77 1.035.143 2.083.163 3.122.061 1.02-.107 1.78-.326 2.283-.662 1.3-.867 2.325-2.097 3.085-3.686.788-1.66 1.016-3.197.7-4.6" fill="#935a8c" class="B C"/><path d="M13.23 5.435c-.732-.43-1.883-.83-3.444-1.207l-1.996-.466-2.018-.56C4.26 2.7 3.06 2.07 2.169 1.283c.266 1.123.284 2.372.047 3.747-.13.778-.438 1.957-.927 3.546-.443 1.445-.7 2.516-.778 3.215-.117 1.1.047 2.027.494 2.777.34.573.988 1.063 1.934 1.463.857.368 1.86.624 3 .77 1.1.145 2.14.163 3.122.06 1.02-.107 1.78-.326 2.283-.662 1.3-.867 2.325-2.097 3.085-3.686.788-1.66 1.016-3.197.7-4.6-.242-1.05-.876-1.87-1.9-2.47z" class="D E"/><path d="M14.627 9.485c-.107-1.123-.6-2.036-1.49-2.75s-1.724-1.11-2.512-1.18a20.72 20.72 0 0 1-2.465-.382 15.46 15.46 0 0 1-2.414-.713c-.75-.293-1.598-.778-2.544-1.445.2.965.163 2.032-.107 3.197-.15.657-.475 1.65-.983 2.987-.457 1.216-.736 2.12-.834 2.712-.15.932-.037 1.73.34 2.386.294.5.76.98 1.398 1.435s1.496.75 2.568.885a21.63 21.63 0 0 0 3.1.172c.998-.018 1.878-.29 2.675-.797s1.57-1.44 2.32-2.796 1.067-2.59.96-3.714" fill="#674654" class="B C"/><path d="M11.803 5.873c.913.182 1.552.7 1.92 1.52.42.955.345 2.14-.224 3.542-.326.806-.638 1.468-.937 2l-.238.387c-.35.527-.732.94-1.146 1.235a2.98 2.98 0 0 1-.303.191c-.48.266-1.048.415-1.7.443l-.345.005c-.806-.02-1.8-.2-2.978-.568-1.435-.433-2.46-1.072-3.08-1.906-.56-.75-.7-1.5-.396-2.25s.927-1.268 1.892-1.552c1.076-.312 2.335-.242 3.775.2.07-1.184.513-2.078 1.328-2.7a2.91 2.91 0 0 1 2.433-.554z" stroke="#935a8c" stroke-width=".838" class="D"/><g class="B C"><path d="M11.756 5.78a2.91 2.91 0 0 0-2.433.555c-.816.6-1.258 1.505-1.328 2.7-1.44-.452-2.698-.522-3.775-.2-.965.284-1.594.8-1.892 1.552s-.163 1.5.396 2.25c.62.834 1.645 1.473 3.08 1.906.637-.527 1.31-1.01 2.013-1.445a17.49 17.49 0 0 1 1.906-1.016c.673-.309 1.366-.574 2.074-.792l1.654-.43c.57-1.403.643-2.586.224-3.542-.368-.83-1.007-1.337-1.92-1.52" fill="#ffca6d"/><path d="M13.452 10.84l-1.654.43.718 1.56c.298-.522.6-1.184.937-2m-5.644 2.248a17.94 17.94 0 0 0-2.013 1.445c1.18.36 2.172.55 2.978.568l.345-.005-1.3-2"/><path d="M12.279 13.218l.238-.387-.718-1.56c-.708.218-1.401.483-2.074.792l1.407 2.4c.415-.294.797-.708 1.146-1.235"/><path d="M10.829 14.644c.105-.058.206-.121.303-.191l-1.407-2.4a16.46 16.46 0 0 0-1.906 1.016l1.3 2c.652-.028 1.22-.177 1.7-.443"/></g><g class="D F"><path d="M5.805 14.522c-1.435-.433-2.46-1.072-3.08-1.906-.56-.75-.7-1.5-.396-2.25s.927-1.267 1.892-1.552c1.076-.312 2.335-.242 3.775.2.07-1.184.513-2.078 1.328-2.7a2.91 2.91 0 0 1 2.433-.554c.913.182 1.552.7 1.92 1.52.42.955.345 2.14-.224 3.542m-.001.008l-1.654.43m-3.989 1.818a17.94 17.94 0 0 0-2.013 1.445m6.7-1.693l-.238.387c-.35.527-.732.94-1.146 1.235"/><path d="M9.129 15.086l-.345.005c-.806-.02-1.8-.2-2.978-.568m5.326-.07c-.097.07-.198.133-.303.19-.48.266-1.05.415-1.7.443m.595-3.024l1.407 2.4m2.32-3.612c-.326.806-.638 1.468-.937 2"/><path d="M11.809 11.27l.718 1.56m-4.698.248l1.3 2"/><path d="M11.809 11.27c-.708.218-1.401.483-2.074.792m-.001 0a16.46 16.46 0 0 0-1.906 1.016"/></g><path d="M5.073 10.906a.58.58 0 0 0-.224.457.57.57 0 0 0 .224.452.84.84 0 0 0 .55.191.78.78 0 0 0 .545-.2c.149-.135.228-.275.228-.452a.57.57 0 0 0-.228-.457c-.15-.12-.33-.182-.545-.182a.86.86 0 0 0-.55.182" class="B C R"/><path d="M4.849 11.363a.57.57 0 0 0 .224.452.84.84 0 0 0 .55.191.78.78 0 0 0 .545-.2c.149-.135.228-.275.228-.452a.57.57 0 0 0-.228-.457c-.15-.12-.33-.182-.545-.182a.86.86 0 0 0-.55.182.58.58 0 0 0-.224.457z" class="D F"/><path d="M11.756 8.996c.107-.182.145-.368.112-.564a.55.55 0 0 0-.28-.415c-.154-.089-.32-.102-.503-.037s-.33.196-.438.378a.81.81 0 0 0-.107.564c.033.191.126.336.28.424a.56.56 0 0 0 .503.028.85.85 0 0 0 .433-.377" class="B C R"/><path d="M11.869 8.432a.56.56 0 0 0-.28-.415c-.154-.089-.32-.102-.503-.037s-.33.196-.438.378a.81.81 0 0 0-.107.564c.033.191.126.336.28.424a.56.56 0 0 0 .503.028.85.85 0 0 0 .433-.377c.107-.182.145-.368.112-.564z" class="D F"/><path d="M25.689 4.205c-.103-.098-.224-.15-.368-.15s-.266.05-.368.15a.5.5 0 0 0-.154.368.51.51 0 0 0 .154.373.5.5 0 0 0 .368.154.5.5 0 0 0 .368-.154.51.51 0 0 0 .154-.373.5.5 0 0 0-.154-.368" fill="#a3555c" class="B C"/><path d="M15.521 50.377l2.414-1.165m-4.068-.35l2.535-3.3m-4.6 1.786l.76-2.083" class="D E"/><g class="B C"><path d="M13.704 48.238c-1.295-1.04-2.614-1.803-3.96-2.288l-.28 2.75 4.823 3.845 2.82-.792c-1.05-1.365-2.186-2.535-3.402-3.514" class="J"/><path d="M14.286 52.544l-1.08-.862c-.415.555-.862.9-1.347 1.016a1.53 1.53 0 0 1-1.37-.289c-.443-.33-.634-.778-.583-1.342.042-.494.27-.983.685-1.468l-1.128-.9c-.74.862-1.146 1.678-1.216 2.456-.075.862.27 1.63 1.03 2.302.806.713 1.682.983 2.628.8s1.743-.746 2.38-1.724" class="H"/><use xlink:href="#C" fill="#716f75"/><path d="M13.942 52.2l-3.052-2.433-.932-.746c-.6.713-.94 1.4-1.002 2.032-.06.713.22 1.347.848 1.9.666.587 1.4.8 2.172.666s1.44-.615 1.967-1.42" fill="#86adc0"/><path d="M13.681 52.102l2.353-.722c-1.42-1.953-3.23-3.453-5.43-4.502l-.35 2.283 3.425 2.94" class="K"/><path d="M9.337 51.822a.52.52 0 0 0 .163-.382.53.53 0 0 0-.163-.387c-.107-.107-.233-.158-.382-.158s-.28.05-.387.158a.53.53 0 0 0-.158.387c0 .149.05.275.158.382a.53.53 0 0 0 .387.163.52.52 0 0 0 .382-.163" class="H"/><use xlink:href="#C" fill="#685f63"/></g><g class="D"><g class="F"><path d="M14.286 52.544l-1.08-.862M10.591 49.6l-1.128-.9m1.128.9c-.415.485-.643.974-.685 1.468a1.41 1.41 0 0 0 .583 1.342 1.53 1.53 0 0 0 1.37.289c.485-.126.932-.46 1.347-1.016"/><path d="M13.205 51.682L10.591 49.6"/></g><path d="M13.704 48.238c1.216.98 2.353 2.148 3.402 3.514l-2.82.792c-.64.98-1.435 1.552-2.38 1.724s-1.822-.098-2.628-.8c-.76-.67-1.104-1.44-1.03-2.302.07-.778.475-1.594 1.216-2.456l.28-2.75c1.347.485 2.666 1.25 3.96 2.288z" class="E"/></g><path d="M12.074 44.18c-.047.247-.005.5.13.718s.32.387.56.466a.77.77 0 0 0 1.035-.601c.048-.247 0-.5-.135-.718s-.317-.387-.554-.466-.46-.065-.666.05-.326.303-.368.55m3.96.313a.79.79 0 0 0 .047.685c.117.233.303.4.56.503s.508.107.755.02a.79.79 0 0 0 .503-.471.8.8 0 0 0-.047-.69 1.01 1.01 0 0 0-.564-.499 1.02 1.02 0 0 0-.75-.023c-.247.088-.415.247-.503.475m2.213 3.653c-.22.07-.373.2-.466.373a.57.57 0 0 0 0 .54.82.82 0 0 0 .452.41.92.92 0 0 0 .643.023c.22-.07.368-.186.457-.363a.59.59 0 0 0 .009-.55.82.82 0 0 0-.452-.401.93.93 0 0 0-.643-.033" fill="#716f75" class="B C"/><path d="M16.081 45.177c.117.233.303.4.56.503s.508.107.755.02a.79.79 0 0 0 .503-.471.8.8 0 0 0-.047-.69 1.01 1.01 0 0 0-.564-.499 1.02 1.02 0 0 0-.75-.023.8.8 0 0 0-.503.475.79.79 0 0 0 .047.685zm1.7 3.34c-.088.177-.088.36 0 .54a.82.82 0 0 0 .452.41.92.92 0 0 0 .643.023c.22-.07.368-.186.457-.363a.59.59 0 0 0 .009-.55.82.82 0 0 0-.452-.401.93.93 0 0 0-.643-.033c-.22.07-.373.2-.466.373zm-5.578-3.62c.135.228.32.387.56.466a.77.77 0 0 0 1.035-.601c.048-.247 0-.5-.135-.718s-.317-.387-.554-.466-.46-.065-.666.05-.326.303-.368.55-.005.5.13.718z" class="D E"/><g class="B C"><path d="M26.831 14.4c-1.16-.2-2.428-.042-3.807.452s-2.45 1.184-3.225 2.07-1.025 1.715-.75 2.484.997 1.25 2.158 1.44 2.428.037 3.803-.457 2.456-1.184 3.23-2.064c.778-.9 1.025-1.715.75-2.484s-.997-1.25-2.158-1.44" class="M"/><path d="M24.469 19.742c1.226-.368 2.204-.9 2.94-1.584s1.007-1.333.825-1.934-.77-.993-1.757-1.156-2.102-.06-3.327.308-2.2.9-2.94 1.584-1.007 1.328-.825 1.934.77.988 1.757 1.156 2.102.06 3.327-.308" class="N"/><path d="M59.592 27.212l-.06-.06c-2.05-2.26-4.222-4.152-6.52-5.68l-.294-.2-.144.77a72.08 72.08 0 0 0-7.671-3.066h-.01c-.014-.005-.033-.01-.047-.01-4.255-.997-8.495-1.622-12.74-1.87l-.242-.014-.098 4.767c0 .014 0 .023.005.037l.62 4.488 1.473.913-1.855-.024-4.628-9.68-5.737.937-.76 3.472-1.738-2.913c-.028-.05-.07-.084-.12-.103a.22.22 0 0 0-.158 0c-1.84.676-3.658 1.477-5.452 2.414l-.014.005c-1.398.726-2.76 1.52-4.082 2.377v.005l-.005.005c-2.38 1.53-4.72 3.3-7.013 5.308l-.07.06-.01.098c-.266 3.714.257 7.428 1.557 11.152.014.033.033.065.065.093s.06.042.098.056l5.867 1.468 2.237-2.484c.023-.031.042-.066.056-.102s.01-.075 0-.112l-.522-2.013 3.425 2.088 3.44-.9 3.323-.862 4.078-.643a.23.23 0 0 0 .121-.061c.033-.033.056-.07.07-.112l1.286-4.982 1.267 4.13 3.327-.82v.438l9.27.475 7.12 1.36c.014.005.033.005.047.01l2.722.517.77-.913.373 3.896 2.647-.196c.014 0 .033-.005.05-.01l3.504-1.05-.937-5.946 1.524-1.216a.24.24 0 0 0 .079-.121c.42-1.636.592-3.337.517-5.103zm-.95 4.996l-.135.107-1.118.9-.26-1.617-.513-.284.377 2.358v.02l.895 5.67-3.093.926-.117.01-2.046.15-.378-3.896 2.206-2.605c.01-.014.02-.023.028-.037l-.443-.196-.126.154-3.034 3.588-2.148-.4 2.176-3.812c.01-.023.02-.047.023-.07v-.005l.028-.135.64-3.36c.005-.01.005-.02.01-.028.005-.02.005-.037.005-.056l1.43-7.517c2.14 1.46 4.166 3.24 6.086 5.345.06 1.617-.093 3.178-.46 4.688l-.028.12zM18.849 19.48l.2.326 1.7 2.852-2.405 11.063a.26.26 0 0 0 .005.107.29.29 0 0 0 .047.093l.042.047 2.857 3.313-2.86.74-3.542-2.987.005.093a.23.23 0 0 1-.056.168c-.042.05-.093.08-.158.084a.23.23 0 0 1-.168-.056l.023.023 3.346 2.82-2.805.727-3.76-2.288-.126-.08-.228-.14c-.005-.023-.014-.047-.02-.07l-.214-1.04-.005-.01c-.005-.02-.005-.023-.005-.023a56.77 56.77 0 0 1-.634-3.83c-.322-2.48-.457-4.916-.4-7.312a49.62 49.62 0 0 1 3.63-2.125l.168 4.05.466-.177-.177-4.1c1.628-.847 3.307-1.593 5.028-2.232.02-.01.042-.02.065-.028zM2.673 29.374a58.14 58.14 0 0 1 6.526-4.967c-.029 2.346.108 4.691.41 7.018.005.014.005.033.01.05l.014.102c.005.047.01.098.02.15.141 1.058.314 2.112.517 3.16l-3.1-1.6-.26-.135.02.01c.023.02.047.042.065.07a.23.23 0 0 1 .028.079c.01.05.005.102-.02.15-.005.01-.014.02-.02.028-.037.05-.1.08-.15.093h-.004c-.06.01-.117-.005-.168-.037l-.02-.014c.014.014.028.023.042.033l.308.158 3.393 1.743.233 1.1c.005.033.02.06.042.084.014.023.037.047.065.065l.373.224.6 2.358-1.967 2.18-5.476-1.38c-.01-.023-.02-.05-.023-.074-1.216-3.556-1.706-7.1-1.468-10.667zm22.75-3.42l-.224.685 1.827 4.45-1.417 5.47-.07.01-3.742.592-2.982-3.458.033-.15 2.367-10.895.816-3.728 5.084-.83 4.516 9.446.177 3.122.02.284.08 1.398v2.32l-3 .74-1.095-3.598-.005-.01-.042-.12-.26-.7-.005-.005-.005-.014zm6.874-3.658l-.06-.42-.005-.037.1-4.264c4.087.252 8.17.853 12.25 1.8l.46.135a72.51 72.51 0 0 1 7.452 3l-2 10.513-.098.168-2.144 3.75-6.633-1.26 2.512-3.197c.028-.037.042-.08.047-.126l.023-.34.02-.284.27-4.012a.18.18 0 0 0-.014-.098c-.014-.033-.028-.056-.05-.08l-.014-.02-1.207-1.254 1.435-3.024-.27-.065h-.005l-1.365 2.875-.22.443 1.228 1.301-.298 4.408-.005.05-.177.228-2.45 3.118-8.705-.447v-2.8l-.005-.14-.26-4.47 6.468.088-.485-.47-3.323-.047-1.943-1.207-.527-3.798" class="L"/><path d="M54.439 33.96l-.256.303.494 6.026.117-.01.163-.05-.517-6.268"/><path d="M54.676 40.288l-.494-6.026-1.93 2.28.378 3.896 2.046-.15" class="G"/><path d="M53.916 33.857l-3.038-.573-2.144 3.75 2.148.4.946-1.123.005-.005 2.083-2.46m3.2-2.258l.26 1.617 1.118-.9-1.38-.727" class="I"/><path d="M58.506 32.315l.135-.107.028-.12-1.76-.94-.354-.177.06.335.513.284 1.38.727m-7.575.837c-.005.023-.014.047-.023.07l-.033.06 3.038.573.126-.154-.005-.107-3.076-.583-.028.135v.005"/><path d="M56.973 29.02v-.555L53.749 26.3l.294 7.405.443.196.028-.126-.26-6.575 2.722 1.822" class="G"/><path d="M56.973 28.465v.555l-2.722-1.822.26 6.566-.028.135c-.01.014-.02.023-.028.037l-.02.023.517 6.268 2.93-.876-1.272-8.058-.06-.335.354.177 1.76.94a16.91 16.91 0 0 0 .46-4.688c-1.92-2.106-3.947-3.887-6.086-5.345l-.065.35-.005.02-1.36 7.15c0 .02 0 .037-.005.056-.005.01-.005.02-.01.028l-.64 3.36 3.076.583-.3-7.298 3.225 2.167" class="H"/><path d="M19.039 19.807l-.2-.326-.065.028c-.294 3.65-.252 7.517.12 11.608l.2-.932c-.3-3.64-.312-7.097-.065-10.378" fill="#d8f5fc"/><path d="M20.741 22.66l-1.7-2.852c-.247 3.28-.224 6.74.065 10.378l1.636-7.526" class="G"/><path d="M21.286 37.282l-2.857-3.312-3.393 1.198 3.388 2.857 2.86-.74" class="I"/><path d="M10.954 36.388l.228.14 3.346-1.18-.023-.023c-.033-.028-.056-.06-.07-.098l-.014-.056v-.005l-.005-.08-3.48 1.23c.005.023.014.047.02.07"/><path d="M11.313 36.607l3.756 2.288 2.805-.727-3.346-2.82-3.346 1.18.126.08h.005" class="I"/><path d="M14.417 29.57l-.457.177.457 5.34.005.08v.005l.014.056c.014.037.037.07.07.098a.23.23 0 0 0 .168.056c.065-.005.116-.033.158-.084a.23.23 0 0 0 .056-.168l-.005-.093-.01-.112-.457-5.354" class="G"/><path d="M18.341 33.83a.26.26 0 0 1-.005-.107l.005-.023-3.467 1.226.01.112.154.13 3.393-1.198-.042-.047c-.02-.023-.033-.05-.042-.075"/><path d="M13.932 25.85l-.466.177-.168-4.05-3.63 2.125a50.86 50.86 0 0 0 .4 7.312l.634 3.83c.005.014.005.02.005.023l.005.01.214 1.04 3.48-1.23-.457-5.34.457-.177.457 5.354 3.467-1.226.564-2.582c-.373-4.092-.415-7.96-.12-11.608-1.721.639-3.4 1.385-5.028 2.232l.177 4.1" class="H"/><path d="M9.649 31.727c-.01-.05-.014-.102-.02-.15l-.014-.102c-.005-.02-.005-.037-.01-.05l-2.824 1.72.023.02.26.135 2.582-1.57"/><path d="M10.167 34.887l-.517-3.16-2.582 1.57 3.1 1.6" class="I"/><path d="M9.209 24.407c-2.214 1.45-4.4 3.104-6.524 4.968-.238 3.556.252 7.1 1.468 10.667l3.146-2.13-.704-4.34c-.014-.01-.028-.02-.042-.033l-2.4-1.673L6.845 30.1l.05.513-1.93 1.277 1.817 1.263 2.824-1.72c-.303-2.377-.443-4.716-.4-7.018" class="H"/><path d="M6.891 33.242c-.019-.026-.041-.049-.065-.07l-.02-.01-.023-.02-1.817-1.263 1.93-1.277-.05-.513-2.712 1.776 2.428 1.687a.23.23 0 0 0 .168.037h.005a.25.25 0 0 0 .15-.093c.005-.01.014-.02.02-.028.023-.047.028-.098.02-.15a.23.23 0 0 0-.028-.079" class="G"/><path d="M6.891 33.73l-.308-.158.704 4.34-3.146 2.13c.006.025.014.05.023.074l.266.07 3.085-2.092c.023-.014.037-.037.05-.06.01-.037.014-.056.01-.08l-.014-.084-.67-4.138"/><path d="M10.516 36.583l-.233-1.1-3.394-1.753.67 4.138 4.045 1.445-.6-2.358-.373-.224a.25.25 0 0 1-.065-.065c-.023-.023-.037-.05-.042-.084" class="G"/><path d="M9.639 41.495l1.967-2.18-4.147-1.185-3.03 2.055 5.2 1.3" class="I"/><path d="M7.562 37.87l.014.084c.005.023 0 .042-.005.065-.02.037-.033.06-.056.075l-.056.037 4.147 1.184-4.045-1.445" fill="#93cae0"/><path d="M31.827 30.954l-.02-.284-4.054 1.016.037.107.01.023.042.135 3.984-.997"/><path d="M31.906 32.352l-.08-1.398-3.984.997 1.053 3.462 3-.74v-2.32" class="I"/><path d="M24.981 26.117h.005l-.01-.023c0 .005 0 .014.005.023" class="L"/><path d="M23.709 32.515l.033-.02-.02-.033-.014.05" class="H"/><path d="M25.209 26.64l-.2-.435-1.566 6.16-4.604 1.188-.033.15v.005l.103.116 4.683-1.212c.01-.005.02-.005.028-.01s.023-.02.033-.028a.12.12 0 0 0 .037-.061l.014-.05 1.487-5.825"/><path d="M23.732 32.496l-.033.02c-.005.023-.02.042-.037.06a.18.18 0 0 1-.033.028c-.013.008-.02.005-.028.01l-.107.028 2.046 3.928.07-.01-1.878-4.064" fill="#93cae0"/><path d="M23.714 32.464l.02.033 1.875 4.063 1.417-5.47-1.827-4.45-1.487 5.825" class="G"/><path d="M23.495 32.64l-4.586 1.185 2.88 3.337 3.742-.592-2.046-3.93" class="I"/><path d="M28.309 24.132l-.168-.438-3.723.732.55 1.668.01.023h-.005l.22.52.22-.7-.387-1.17 3.285-.648" class="G"/><path d="M28.149 23.694l.168.438-3.285.648.387 1.17 2.074 5.047.26.7 4.056-1.027-.177-3.122-4.516-9.446-5.084.83-.816 3.737-2.367 10.886 4.604-1.188 1.556-6.162-.028-.074c-.014-.023-.014-.033-.014-.037l-.55-1.668 3.723-.732" class="H"/><path d="M50.389 33.2l.098-.168.02-.098-6.296-1.193-.02.284 6.198 1.174"/><path d="M48.245 36.942l2.144-3.75-6.198-1.174-.023.34a.25.25 0 0 1-.047.126l-2.512 3.196 6.636 1.263" class="I"/><path d="M43.706 32.25l.005-.05H32.369l.005.126v.154h11.155l.177-.228"/><path d="M41.077 35.595l2.45-3.118H32.372v2.67l8.705.447" class="I"/><path d="M38.691 21.932v.317l.713.075 4.95.853c-.023-.037-.033-.08-.028-.12l.014-.163-5.36-.923-.3-.037"/><path d="M39.409 22.323h-.005l-.713-.075 4.078 4.25.22-.443-3.58-3.733" class="G"/><path d="M32.824 26.093l1.945 1.207 3.323.047-5.793-5.052.527 3.798" class="I"/><path d="M38.691 22.25v-.317l.3.037 5.36.923.233-3.518a74.61 74.61 0 0 0-12.25-1.8l-.1 4.264.005.037 6.342 5.527-.005.415-6.468-.1.26 4.47h11.341l.3-4.388-5.317-5.54" class="H"/><path d="M32.237 21.876l.06.42 5.793 5.052.485.47.005-.415-6.342-5.527"/><path d="M48.039 24.75v.5l3.65 1.463.1-.466-3.737-1.487m-.183 3.636v.5l3.253.862.088-.46-3.34-.9" class="G"/><path d="M44.409 27.524l.014.02c.023.023.037.047.05.08a.18.18 0 0 1 .014.098l-.27 4.012 6.296 1.193.606-3.187-3.253-.862v-.5l3.34.9.5-2.572-3.65-1.463v-.5l3.737 1.487.708-3.728c-2.426-1.138-4.914-2.139-7.452-3l-.345 3.756-.3 4.26" class="H"/><path d="M44.353 23.18v-.005l-4.944-.853 3.58 3.733 1.365-2.875" class="I"/><path d="M45.034 19.5l-.46-.135-.233 3.518-.014.163c-.005.042.005.084.028.12v.005h.005l.27.065-1.435 3.024 1.207 1.254.3-4.26.345-3.756" class="G"/></g><path d="M39.404 22.323h.005" stroke="red" class="D S"/><g class="B C"><path d="M34.041 18.17l-1.263-.098-.075 3.593.825.718 2.363-4.026-1.85-.186m-4.082 6.962l-2.568 4.385.527 1.282c.005.01.005.02.01.028l.116.303.42-.103 2.377-4.054-.88-1.84m7.826.964l.927.806c.07.023.135.06.2.12a.53.53 0 0 1 .098.13.47.47 0 0 1 .126.294.42.42 0 0 1-.09.308v.065c-.005.126-.05.238-.14.33a.45.45 0 0 1-.336.13l-2.046-.028-2.04 3.476h3.92l3.318-5.657-2.433-2.535-1.496 2.558m6.298-6.353l-2.288-.485-1.45 2.474 3.56.615v-.014l.177-2.6M4.565 28.386l-1.44 1.212-.042 1.32 1.482-2.53m17.112-5.658c-.005.014-.005.023-.005.037l-1.202 5.518 5.597-9.54-3.65.597-.74 3.388m-3.732 10.615l.5-2.256-.298-5.5-3.138 5.351.284 3.346 2.66-.94m-6.784 1.807l-.005-.023c-.01-.02-.01-.028-.014-.037l.02.06m2.604-2.125l-1.323 2.255 1.473-.517-.15-1.738m-9.72 5.144l.335 1.128 2.4-1.622-.527-3.27-2.2 3.756m3.55-6.068l1.496-.913-.15-1.384-1.347 2.297m33.764-.364h1.9l.242-3.658-2.144 3.658m13.636-5.145l.965-1.645c-.835-.745-1.71-1.445-2.619-2.097l-1.296 6.895c-.01.02-.01.028-.014.042l-.527 2.773 1.883-3.2-.12-3.03c-.005-.12.028-.228.107-.317a.46.46 0 0 1 .294-.163.43.43 0 0 1 .326.074l1 .676m2.538-.18l-.788 1.342.475.32a.43.43 0 0 1 .196.294c.023.126 0 .247-.07.354l-.26.387a.43.43 0 0 1-.294.196c-.126.023-.247 0-.354-.07l-.4-.275-1.18 2.013.042 3.1.457 5.54 2-.597-.83-5.27c-.005-.02-.005-.037-.005-.056l-.373-2.316a2.61 2.61 0 0 1-.042-.53.37.37 0 0 1 .056-.191.33.33 0 0 1 .135-.107c.056-.033.117-.047.177-.042.033 0 .084.01.154.028.093.02.256.084.494.196l.126.07c.028.01.056.023.084.047l1 .54a16.54 16.54 0 0 0 .321-3.798l-1.123-1.174m-12.553-.868l-.126 1.85-.172 3.956 5.43 1.03.438-2.3-2.88-.788a.42.42 0 0 1-.28-.214.47.47 0 0 1-.047-.354l.01-.452a.44.44 0 0 1 .214-.284c.107-.065.228-.08.354-.047l2.894.764.32-1.7-3.295-1.323c-.06-.023-.12-.117-.2-.28s-.088-.266-.065-.326l.023-.433a.46.46 0 0 1 .247-.256.88.88 0 0 1 .256-.042.63.63 0 0 1 .252.037l3.043 1.22.53-2.815-4.273-1.813-2.684 4.58M18.239 20.65l.028-.447a43.65 43.65 0 0 0-4.031 1.817l.163 3.812a.46.46 0 0 1-.12.336c-.087.098-.2.144-.326.15l-.466.13c-.13.005-.242-.033-.33-.12a.44.44 0 0 1-.154-.322l-.12-2.9-2.68 4.576.34 3.672.284 1.94 7.412-12.644" fill="#8ebed3"/><path d="M29.646 44.506l1.08 3.593.792-1.198 1.822 2.35.06-1.915 2.526 1.43-.06-1.445 3.75 1.566-2.363-2.978 2.018-.74-2.055-1.314 1.575-1.235-2.563-.028.6-1.286-4.092.172-3.094 3.03" class="O"/></g><path d="M29.646 44.506l3.094-3.03 4.092-.172-.6 1.286 2.563.028-1.575 1.235 2.055 1.314-2.018.74 2.363 2.978-3.75-1.566.06 1.445-2.526-1.43-.06 1.915-1.822-2.35-.792 1.198z" class="D F P"/><path d="M25.159 36.462c-.303.676-.275 1.333.088 1.97s.955 1.076 1.77 1.31a3.77 3.77 0 0 0 2.433-.12c.797-.31 1.347-.802 1.654-1.473s.28-1.333-.084-1.97-.955-1.077-1.776-1.3-1.626-.196-2.423.117-1.35.8-1.664 1.477" class="B C H"/><path d="M25.247 38.433c.364.638.955 1.076 1.77 1.31a3.77 3.77 0 0 0 2.433-.12c.797-.31 1.347-.802 1.654-1.473s.28-1.333-.084-1.97-.955-1.077-1.776-1.3-1.626-.196-2.423.117-1.35.8-1.664 1.477c-.303.676-.275 1.333.088 1.97z" class="D E"/><g class="B C"><path d="M26.151 36.826a1.53 1.53 0 0 0 .065 1.454c.266.47.704.797 1.305.97a2.79 2.79 0 0 0 1.794-.093c.587-.228.993-.587 1.22-1.086s.2-.983-.06-1.454-.704-.792-1.31-.965a2.74 2.74 0 0 0-1.79.084c-.587.228-.997.592-1.226 1.1" fill="#89a9b9"/><path d="M28.034 35.824c.06.107.154.177.3.22a.62.62 0 0 0 .401-.023.46.46 0 0 0 .275-.242.33.33 0 0 0-.014-.321c-.06-.107-.158-.177-.294-.22s-.266-.033-.396.02-.224.135-.275.247a.33.33 0 0 0 .014.322" class="H"/><path d="M35.634 38.816c-1.45-.396-2.833-.48-4.152-.252.974.718 1.94 1.547 2.894 2.5l1.258-2.237" class="J"/><path d="M32.657 43.932c.87-.708 1.445-1.668 1.72-2.88a28.47 28.47 0 0 0-2.894-2.5c-3.094-2.28-6.277-3.44-9.553-3.476.345 3.444 2.66 6.766 6.948 9.973 1.542.042 2.8-.33 3.78-1.128"/><path d="M34.227 41.03l.94-1.673c-1.08-.294-2.116-.354-3.1-.186a20.31 20.31 0 0 1 2.158 1.859" class="K"/><path d="M21.663 34.845l.037.266c.34 3.5 2.684 6.878 7.037 10.136l.06.047h.075c1.603.047 2.913-.345 3.933-1.18.9-.732 1.496-1.724 1.8-2.973l1.393-2.474-.294-.075c-1.45-.396-2.833-.485-4.157-.275-3.113-2.274-6.315-3.43-9.605-3.462zm10.28 3.9c1.067-.13 2.18-.056 3.34.228l-1 1.794a27.44 27.44 0 0 0-2.33-2.023zm-.597.02l.08.056 1.04.792c.76.6 1.323 1.072 1.682 1.42-.266 1.146-.8 2.055-1.636 2.726-.927.746-2.1 1.104-3.556 1.08-4.073-3.062-6.328-6.23-6.762-9.507 3.132.098 6.184 1.244 9.152 3.43" class="L"/><path d="M31.953 43.797c.685-.555 1.132-1.3 1.35-2.265-.71-.706-1.47-1.36-2.274-1.957-2.437-1.794-4.94-2.703-7.517-2.73.275 2.708 2.097 5.322 5.466 7.843 1.212.033 2.204-.26 2.973-.9" fill="#cbc4c4"/><path d="M32.559 43.382c1.44-.014 2.484-.2 3.122-.56-1.347-1.347-3.304-2.26-5.872-2.75.233.732 1.15 1.83 2.75 3.3" class="J"/><path d="M32.316 43.36c1.216 0 2.106-.14 2.666-.42-1.058-1.072-2.66-1.813-4.8-2.218.16.582.87 1.46 2.134 2.638" class="K"/><path d="M29.483 39.776l.177.4c.36.806 1.25 1.873 2.666 3.192l.238.256c1.5-.014 2.568-.2 3.234-.587l.28-.15-.228-.22c-1.375-1.38-3.37-2.316-5.993-2.815zm3.076 3.374h-.042c-1.267-1.18-2.078-2.106-2.428-2.782 2.2.46 3.938 1.258 5.187 2.4-.624.247-1.528.378-2.717.392" class="L"/><path d="M27.055 45.386c.527-.405 1-1.086 1.45-2.05l-2.754-2.283c-.186 1.5.247 2.945 1.305 4.334" class="J"/><path d="M28.557 43.215l-2.247-1.743c-.116 1.28.26 2.474 1.137 3.58.4-.377.778-.988 1.1-1.836" class="K"/><path d="M25.583 40.73l-.056.28c-.2 1.57.247 3.076 1.342 4.52l.145.2.186-.15c.555-.424 1.072-1.16 1.552-2.2zm2.68 2.582c-.36.77-.75 1.347-1.165 1.734-.84-1.174-1.22-2.4-1.146-3.644l2.312 1.9" class="L"/><path d="M44.927 40.535c-.4.13-.732.387-1.02.774s-.438.783-.452 1.193.112.713.378.913.592.238.98.107.732-.387 1.02-.774.438-.783.452-1.193-.107-.718-.373-.918-.596-.233-.983-.102" class="M"/><path d="M45.729 41.043c-.196-.145-.438-.172-.722-.075a1.57 1.57 0 0 0-.755.569c-.2.284-.322.578-.33.88s.08.527.28.67c.2.15.433.177.718.08a1.57 1.57 0 0 0 .755-.569c.2-.284.32-.578.33-.88s-.08-.527-.275-.676" class="N"/><path d="M19.894 45.26c.527-.042 1.072.084 1.645.377s.997.666 1.272 1.118.32.853.14 1.202-.53.545-1.058.587-1.076-.1-1.65-.382-.993-.662-1.268-1.114-.326-.853-.15-1.202.536-.545 1.067-.587" class="M"/><path d="M20.059 45.633c-.424.033-.713.186-.857.466s-.103.606.12.97.56.662 1.016.895.9.336 1.323.303.708-.2.853-.47.103-.6-.116-.96c-.22-.368-.56-.666-1.02-.9s-.9-.336-1.32-.303" class="N"/><path d="M42.649 50.648l-.685-1.104-1.188.214.685 1.104 1.188-.214" class="O"/></g><path d="M41.963 49.543l-1.188.214.685 1.104 1.188-.214z" class="D F P"/><path d="M45.189 51.598l.6-.53-.42-.704-.6.53.42.704" class="B C O"/><path d="M45.789 51.067l-.42-.704-.6.53.42.704z" class="D F P"/><path d="M48.324 51.15l.494-.233-.382-.294-.494.233.382.294" class="B C O"/><path d="M48.809 50.918l-.382-.294-.494.233.382.294z" class="D F P"/><g class="B C"><path d="M42.139 43.038c-.294.037-.578.177-.843.415s-.443.503-.522.797-.037.527.12.704.387.247.7.205c.294-.042.578-.182.848-.42s.438-.503.517-.792.037-.527-.12-.708-.387-.242-.7-.2" class="M"/><path d="M42.709 43.4c-.135-.15-.322-.205-.57-.172a1.39 1.39 0 0 0-.708.35 1.4 1.4 0 0 0-.429.657c-.065.247-.033.443.102.592s.322.2.57.163.48-.145.704-.345.368-.415.43-.662c.065-.238.033-.433-.098-.583" class="N"/></g></symbol><defs ><path id="C" d="M10.591 49.6c-.415.485-.643.974-.685 1.468a1.41 1.41 0 0 0 .583 1.342 1.53 1.53 0 0 0 1.37.289c.485-.126.932-.46 1.347-1.016L10.591 49.6"/></defs></svg>